<?xml version="1.0" standalone="no"?>
<!DOCTYPE svg PUBLIC "-//W3C//DTD SVG 20010904//EN"
 "http://www.w3.org/TR/2001/REC-SVG-20010904/DTD/svg10.dtd">
<svg version="1.0" xmlns="http://www.w3.org/2000/svg"
 width="1292.000000pt" height="515.000000pt" viewBox="0 0 1292.000000 515.000000"
 preserveAspectRatio="xMidYMid meet">

<g transform="translate(0.000000,515.000000) scale(0.100000,-0.100000)"
fill="#000000" stroke="none">
<path d="M11350 5143 c0 -5 29 -44 63 -88 35 -44 118 -149 185 -233 l120 -152
35 57 c20 32 61 83 92 114 l57 56 -84 41 c-45 22 -163 79 -260 126 -168 81
-208 96 -208 79z m130 -82 c174 -134 341 -281 240 -211 -101 69 -232 175 -315
253 -54 52 -28 37 75 -42z"/>
<path d="M12065 5103 c-3 -27 -9 -66 -12 -87 l-5 -39 33 8 c97 21 120 24 186
25 l72 0 -23 68 -23 67 -51 3 -52 3 -1 -38 -1 -38 -10 38 c-10 36 -11 37 -58
37 l-49 0 -6 -47z"/>
<path d="M12626 5059 c-64 -51 -116 -95 -116 -99 0 -5 21 -21 48 -36 26 -15
75 -54 109 -87 l63 -60 89 184 c87 181 88 184 64 187 -17 2 -30 -5 -46 -25
-48 -61 -167 -194 -167 -186 0 4 34 53 75 107 41 55 75 101 75 103 0 1 -17 3
-39 3 -33 0 -54 -12 -155 -91z"/>
<path d="M12115 4932 c-190 -57 -337 -213 -376 -400 -16 -78 -7 -214 19 -287
123 -340 541 -459 825 -235 96 77 164 184 188 299 17 81 7 234 -20 299 -58
144 -173 257 -316 312 -83 31 -236 37 -320 12z m-74 -93 c-80 -53 -136 -119
-188 -221 -24 -45 -43 -73 -43 -61 0 11 16 53 36 93 42 84 128 176 194 208 68
32 69 26 1 -19z m354 -40 c33 -11 71 -28 85 -39 20 -16 10 -14 -60 10 -97 34
-213 40 -293 16 -55 -16 -60 -13 -15 10 72 37 177 39 283 3z m194 -56 c54 -64
83 -143 82 -228 0 -37 -3 -70 -6 -73 -3 -3 -5 11 -5 30 0 96 -49 230 -105 291
-14 15 -21 27 -16 27 5 0 28 -21 50 -47z m-270 -74 c76 -16 69 -25 -15 -21
-90 5 -148 -14 -206 -66 -44 -39 -59 -39 -27 1 36 46 108 82 191 96 4 0 30 -4
57 -10z m165 -42 c14 -18 33 -51 42 -73 20 -47 21 -156 2 -202 -12 -31 -13
-27 -9 53 4 96 -14 168 -55 223 -14 17 -21 32 -15 32 5 0 21 -15 35 -33z
m-510 -72 c-36 -73 -53 -145 -55 -224 -1 -44 -1 -45 -10 -16 -12 36 -3 130 16
185 14 39 74 135 80 128 2 -2 -12 -35 -31 -73z m376 37 c41 -20 80 -74 80
-111 0 -23 -3 -21 -21 17 -26 51 -71 88 -125 101 l-39 9 35 1 c19 1 51 -7 70
-17z m-50 -62 c12 -8 9 -10 -13 -10 -46 0 -94 -26 -121 -66 -28 -42 -35 -31
-11 17 28 54 105 85 145 59z m-206 -62 c-26 -49 -24 -151 4 -205 13 -24 18
-43 12 -43 -15 0 -51 83 -57 130 -6 41 11 102 36 137 23 30 25 21 5 -19z m387
-82 c-11 -49 -53 -116 -72 -116 -5 0 2 17 15 38 29 44 49 123 42 166 l-6 31
16 -35 c14 -29 14 -43 5 -84z m-626 -132 c20 -73 54 -132 114 -204 l46 -55
-41 32 c-53 42 -108 123 -134 195 -15 43 -20 80 -19 145 l2 88 7 -71 c4 -39
15 -97 25 -130z m350 114 c3 -22 18 -50 36 -68 22 -22 26 -30 14 -30 -22 0
-63 43 -71 74 -3 14 -3 38 1 54 8 29 10 26 20 -30z m147 -17 c-10 -14 -30 -27
-43 -29 l-24 -3 24 17 c13 9 30 33 39 53 15 33 16 34 20 12 2 -13 -5 -35 -16
-50z m343 -19 c-23 -90 -86 -182 -159 -235 -22 -15 -14 -2 27 48 31 37 76 108
99 156 24 48 44 87 45 85 1 -1 -4 -25 -12 -54z m-149 -80 c-23 -45 -94 -101
-150 -117 -63 -19 -106 -19 -56 -1 78 29 140 68 177 110 43 50 52 52 29 8z
m-376 -140 c87 -42 88 -57 3 -24 -72 28 -130 68 -163 114 -46 63 -36 65 23 5
36 -38 79 -67 137 -95z m125 114 c28 -4 69 -3 93 2 23 6 42 8 42 5 0 -10 -73
-33 -108 -33 -46 0 -126 26 -143 46 -10 12 -6 12 27 0 22 -7 62 -17 89 -20z
m-107 -212 c84 -20 233 -19 297 0 59 18 73 12 22 -9 -64 -26 -138 -38 -208
-31 -75 7 -194 41 -205 58 -5 8 -1 9 12 4 10 -4 47 -14 82 -22z"/>
<path d="M12810 4627 c0 -3 7 -32 15 -64 8 -31 15 -95 15 -140 0 -46 2 -83 5
-83 3 0 21 7 40 14 l35 15 0 125 0 126 -32 0 c-18 0 -43 3 -55 6 -13 4 -23 4
-23 1z"/>
<path d="M11640 4498 c-14 -5 -130 -46 -258 -89 -248 -85 -307 -108 -300 -114
2 -2 60 -11 128 -19 69 -8 205 -24 304 -36 98 -12 180 -19 183 -16 3 2 -1 22
-8 43 -7 21 -15 84 -18 139 l-6 101 -25 -9z m-63 -148 c-37 -11 -252 -38 -362
-44 -123 -8 -69 9 94 29 70 8 140 16 156 18 17 2 55 4 85 5 44 0 50 -1 27 -8z"/>
<path d="M12760 4123 c-13 -26 -53 -75 -88 -110 l-64 -64 154 -73 153 -74 3
35 c3 32 -2 40 -44 77 -117 100 -128 118 -29 46 79 -57 75 -57 75 3 0 52 -3
58 -61 131 -33 42 -64 76 -67 76 -4 0 -18 -21 -32 -47z"/>
<path d="M11646 3789 c-76 -155 -136 -283 -133 -285 4 -4 382 287 464 357 l32
27 -60 37 c-33 20 -84 61 -113 90 l-53 54 -137 -280z m185 112 c-29 -53 -267
-351 -294 -368 -13 -8 13 29 98 142 58 77 197 245 203 245 1 0 -2 -9 -7 -19z"/>
<path d="M12415 3858 c-16 -6 -78 -13 -136 -17 l-106 -6 99 -290 c55 -159 102
-292 104 -294 10 -10 14 15 39 222 14 120 30 250 35 290 15 118 17 113 -35 95z
m-66 -199 c19 -144 31 -280 30 -334 l-1 -50 -8 40 c-9 41 -36 287 -43 383 -7
86 10 59 22 -39z"/>
<path d="M8185 2821 c-113 -31 -168 -90 -193 -206 -6 -27 -16 -134 -21 -236
-11 -197 -21 -245 -82 -390 -54 -130 -100 -261 -114 -329 -41 -198 -22 -445
53 -680 62 -195 189 -300 383 -317 71 -6 202 9 283 33 27 8 50 14 51 14 1 0 5
-28 8 -62 11 -119 -27 -418 -53 -418 -4 0 -26 41 -49 91 -24 50 -44 89 -47 87
-2 -2 3 -42 10 -89 8 -46 12 -86 10 -88 -3 -3 -46 5 -97 17 -50 12 -96 22
-100 22 -5 0 12 -25 38 -55 l47 -54 -84 -3 -83 -3 50 -26 49 -26 -59 -17
c-154 -43 -119 -44 215 -1 113 14 302 37 420 51 l215 25 1505 11 1505 10 340
-26 c386 -30 427 -31 345 -9 -30 7 -71 16 -90 19 -52 9 -56 18 -26 68 31 53
32 53 -83 26 -46 -11 -86 -18 -89 -15 -3 2 14 34 38 70 44 67 47 86 11 64 -28
-18 -32 -10 -19 40 9 36 14 42 32 37 12 -2 53 -8 93 -12 l72 -7 -6 -128 c-4
-87 -3 -129 4 -129 10 0 34 80 63 208 11 46 15 52 38 53 l27 1 -28 10 c-18 6
-26 15 -23 24 3 7 8 47 12 88 l7 75 51 -5 51 -4 -52 26 -53 25 -1 77 -1 77
-20 -65 c-12 -36 -22 -67 -24 -69 -2 -2 -46 9 -99 25 l-95 28 0 116 c-1 131
-8 130 -40 -8 -25 -105 -8 -96 -132 -72 l-57 11 6 160 c3 87 3 159 0 159 -8 0
-25 -64 -52 -195 l-22 -110 -36 0 c-47 0 -47 -10 -1 -25 33 -11 36 -15 30 -43
-3 -16 -9 -68 -13 -114 -3 -45 -9 -83 -12 -83 -3 0 -5 -33 -4 -72 3 -73 0 -74
-26 -5 -7 18 -11 10 -27 -50 -10 -40 -22 -73 -26 -73 -4 0 -8 346 -8 769 l0
768 83 6 c45 4 152 7 237 8 185 0 200 -11 -175 130 -227 85 -801 330 -1526
650 -86 38 -161 69 -167 69 -14 0 -208 -92 -737 -350 -455 -222 -704 -340
-714 -340 -4 0 -13 12 -19 26 -7 14 -38 64 -69 112 -172 261 -432 515 -613
599 -59 27 -161 39 -215 24z m223 -82 c100 -53 179 -115 297 -234 128 -128
345 -418 345 -461 0 -5 -84 -51 -187 -101 l-188 -91 228 -1 227 -1 0 -371 0
-372 -87 -86 c-61 -60 -114 -101 -173 -134 -46 -25 -88 -43 -91 -39 -19 19
-48 377 -35 443 6 32 11 36 73 57 113 39 173 100 173 173 0 52 -20 66 -50 34
-31 -33 -107 -55 -191 -55 l-68 0 -5 43 c-3 23 -14 125 -25 227 l-20 185 22
15 c114 79 137 113 137 202 0 31 -3 63 -6 72 -10 26 -32 18 -39 -13 -13 -61
-125 -175 -153 -157 -5 3 -12 27 -16 53 -3 27 -22 117 -41 201 -51 229 -69
235 -87 30 -6 -70 -8 -212 -5 -330 7 -231 6 -231 -55 -150 -51 67 -72 108 -98
188 -26 83 -33 97 -49 102 -16 5 -8 -121 16 -238 26 -131 94 -244 171 -284
l30 -15 6 -138 c4 -76 9 -167 12 -202 7 -75 8 -75 -97 -5 -121 80 -211 210
-279 403 -14 41 -31 76 -38 79 -20 6 -13 -92 14 -180 12 -39 -128 -9 -165 35
-7 10 -20 17 -27 17 -34 0 47 -103 96 -122 14 -6 47 -13 74 -17 l49 -6 32 -75
c64 -153 179 -322 315 -464 43 -45 81 -93 84 -106 2 -14 7 -40 10 -57 l5 -33
-72 -22 c-60 -19 -95 -23 -207 -23 -128 0 -138 2 -198 29 -143 66 -209 195
-258 501 -22 135 -15 338 16 450 11 44 50 152 85 240 82 203 92 250 104 475
10 185 20 239 57 295 33 50 142 88 224 77 19 -2 68 -22 108 -43z m2233 -75
c46 -20 293 -128 549 -239 710 -309 802 -348 985 -417 l170 -63 -145 -5 -145
-5 3 -787 c2 -434 2 -788 -1 -788 -3 0 -22 23 -42 50 -21 28 -39 49 -41 47 -3
-2 1 -39 7 -81 6 -42 9 -79 7 -82 -3 -2 -43 9 -89 25 -89 31 -208 45 -269 32
-32 -7 -28 -8 35 -14 39 -4 93 -7 121 -7 43 0 61 -7 125 -47 l74 -48 -155 -8
c-85 -4 -297 -6 -470 -5 l-315 3 -5 525 c-5 515 -5 526 -27 580 -50 124 -179
235 -301 261 -91 19 -197 8 -275 -28 -111 -53 -182 -130 -225 -246 -21 -56
-22 -70 -22 -576 l0 -518 -497 -6 c-274 -3 -501 -3 -505 -1 -4 3 -8 305 -8
672 0 367 -3 745 -7 840 l-6 172 -141 1 -141 0 105 52 c58 29 249 122 425 206
407 196 657 316 915 440 113 55 210 100 216 100 6 1 48 -15 95 -35z m-2121
-546 c0 -26 -4 -50 -10 -53 -6 -4 -10 19 -10 62 0 48 3 63 10 53 5 -8 10 -36
10 -62z m211 -17 c-11 -19 -61 -56 -61 -44 0 10 52 63 62 63 5 0 4 -8 -1 -19z
m-142 -189 c-1 -44 -3 -51 -9 -32 -12 37 -12 102 0 95 6 -3 10 -32 9 -63z
m-174 -132 c21 -22 36 -42 33 -45 -6 -6 -88 69 -88 80 0 14 19 2 55 -35z m134
-110 c0 -32 -2 -41 -9 -30 -5 8 -9 42 -9 75 1 48 3 54 9 30 4 -16 8 -50 9 -75z
m100 -190 c1 -33 -2 -41 -9 -30 -5 8 -9 38 -9 65 1 64 17 32 18 -35z m251 -16
c0 -8 -67 -34 -87 -33 -10 0 -1 9 22 20 40 18 65 24 65 13z m-342 -144 c0 -34
-2 -40 -8 -25 -5 11 -8 45 -8 75 0 45 2 50 8 25 4 -16 8 -50 8 -75z m133 -23
c-13 -13 -14 19 -3 78 l7 40 3 -54 c2 -30 -2 -59 -7 -64z m-390 -24 c34 -49
37 -63 8 -37 -23 21 -79 98 -79 110 0 13 41 -30 71 -73z m2267 -453 c0 -157
-3 -294 -8 -305 -5 -12 -8 151 -8 385 1 258 4 369 8 305 4 -55 8 -228 8 -385z
m-230 38 c-1 -370 -2 -380 -9 -183 -6 187 -1 575 8 575 1 0 2 -177 1 -392z
m450 -15 c-1 -246 -4 -348 -9 -293 -11 132 -11 670 1 670 7 0 9 -131 8 -377z
m-2263 268 c70 -40 97 -74 30 -37 -57 31 -105 65 -90 66 6 0 33 -13 60 -29z
m-81 -55 c20 -23 36 -47 36 -52 0 -11 -88 75 -102 99 -18 33 27 2 66 -47z
m255 -111 c1 -72 -15 -36 -23 52 -8 84 5 125 16 48 3 -27 7 -72 7 -100z m405
-618 c-14 -32 -27 -57 -29 -57 -3 0 -19 46 -37 103 -28 90 -33 99 -39 72 -4
-16 -7 -60 -8 -97 0 -38 -4 -68 -9 -68 -4 0 -28 39 -54 88 -44 83 -101 238
-128 347 -7 28 -14 55 -15 62 -2 7 34 32 80 57 89 47 180 112 230 166 l30 31
3 -324 2 -324 -26 -56z m1851 648 c14 -13 25 -33 25 -45 0 -27 -43 -70 -70
-70 -47 0 -78 73 -47 112 26 34 61 35 92 3z m-2327 -190 c0 -42 -2 -54 -8 -40
-5 11 -8 52 -8 90 0 52 2 62 8 40 4 -16 8 -57 8 -90z m3744 -61 c61 -21 78
-30 74 -43 -2 -9 -8 -45 -11 -80 l-7 -63 -82 7 c-44 4 -82 8 -83 9 -4 4 21
196 25 196 3 0 40 -12 84 -26z m237 -60 c47 -9 88 -17 89 -19 9 -8 -22 -155
-32 -155 -22 1 -155 36 -162 42 -7 8 5 148 14 148 3 0 44 -7 91 -16z m-3853
-105 c5 -39 3 -51 -4 -44 -6 6 -14 37 -17 70 -8 76 11 54 21 -26z m3569 -62
l39 -12 -68 -73 c-38 -40 -71 -71 -72 -69 -2 2 3 40 12 85 18 90 18 90 89 69z
m79 -23 c12 -5 16 -21 16 -70 0 -62 -1 -65 -32 -84 -54 -33 -57 -28 -37 57 27
111 25 108 53 97z m-3764 -89 c0 -43 -4 -75 -10 -75 -5 0 -10 13 -10 29 0 36
12 121 16 121 2 0 4 -34 4 -75z m245 -49 c14 -38 23 -71 21 -74 -7 -6 -51 92
-61 133 -11 50 12 17 40 -59z m-69 -90 c10 -54 -10 -39 -25 18 -6 25 -11 51
-11 58 1 23 28 -36 36 -76z"/>
<path d="M8284 2679 c-35 -21 -88 -27 -149 -17 l-40 7 40 -19 c22 -11 51 -19
65 -20 31 0 100 31 119 53 18 22 4 20 -35 -4z"/>
<path d="M8421 2608 c-36 -23 -109 -30 -166 -15 l-30 8 24 -17 c40 -29 112
-30 160 -4 22 13 42 29 45 37 7 17 7 17 -33 -9z"/>
<path d="M8248 2488 c-33 -25 -121 -35 -170 -19 l-33 11 24 -20 c23 -20 49
-25 106 -21 32 3 105 45 105 61 0 13 0 13 -32 -12z"/>
<path d="M8361 2375 c-46 -33 -99 -40 -146 -21 -21 9 -40 14 -43 12 -10 -11
65 -46 97 -46 37 0 115 40 125 65 7 19 8 19 -33 -10z"/>
<path d="M8613 2344 c21 -18 39 -24 76 -24 29 0 53 6 60 14 10 11 4 13 -31 9
-25 -3 -62 2 -88 11 l-45 15 28 -25z"/>
<path d="M8265 2234 c-34 -26 -93 -36 -143 -25 -26 5 -49 8 -51 5 -8 -7 68
-34 99 -34 34 0 99 30 119 54 17 20 2 20 -24 0z"/>
<path d="M8111 2074 c-19 -13 -48 -24 -65 -24 -24 0 -27 -3 -16 -10 36 -23 97
-3 120 41 14 25 3 23 -39 -7z"/>
<path d="M8941 2063 c-19 -12 -47 -23 -63 -23 -17 0 -27 -4 -23 -10 16 -25
106 2 119 36 9 24 5 24 -33 -3z"/>
<path d="M8186 1898 c-47 -27 -107 -28 -171 -2 -18 7 -18 6 -6 -9 7 -9 31 -22
52 -29 45 -13 97 -1 139 32 27 21 17 27 -14 8z"/>
<path d="M8901 1627 c-38 -23 -106 -26 -142 -6 -22 11 -23 11 -11 -4 36 -44
120 -42 173 4 31 27 21 30 -20 6z"/>
<path d="M8180 1581 c0 -16 68 -41 113 -41 30 0 53 7 71 21 34 27 27 35 -13
15 -38 -20 -91 -20 -136 -2 -19 8 -35 11 -35 7z"/>
<path d="M8030 1375 c-36 -44 -97 -55 -158 -30 l-37 16 23 -23 c18 -18 34 -23
77 -23 48 0 58 4 87 32 17 18 29 35 26 38 -3 3 -11 -2 -18 -10z"/>
<path d="M8128 1257 c-15 -11 -44 -23 -65 -27 -38 -7 -38 -7 -10 -15 33 -9 83
10 98 37 15 28 8 29 -23 5z"/>
<path d="M8992 1229 c-31 -24 -87 -39 -123 -32 -41 8 -36 -4 6 -16 45 -12 94
1 125 34 29 31 23 40 -8 14z"/>
<path d="M8072 1097 c-46 -33 -100 -40 -142 -17 -12 7 -24 9 -27 6 -4 -3 15
-15 40 -26 49 -22 82 -20 124 7 17 12 61 65 51 62 -2 0 -22 -15 -46 -32z"/>
<path d="M8948 1081 c-21 -44 -80 -81 -129 -81 -29 -1 -31 -2 -16 -11 43 -25
134 16 157 70 18 45 8 64 -12 22z"/>
<path d="M8213 948 c-26 -25 -42 -32 -85 -36 -30 -2 -72 1 -93 7 -36 9 -38 9
-20 -5 62 -46 153 -37 204 21 28 32 36 45 28 45 -1 0 -17 -14 -34 -32z"/>
<path d="M8430 849 c-42 -23 -87 -24 -138 -4 l-37 15 28 -25 c21 -19 39 -25
74 -25 45 0 98 23 107 47 3 7 4 13 3 12 -1 0 -18 -9 -37 -20z"/>
<path d="M10529 2479 c-137 -21 -238 -139 -239 -280 0 -118 50 -209 148 -267
42 -24 57 -27 137 -27 82 0 95 3 145 31 61 34 121 105 139 164 16 52 14 138
-4 191 -9 25 -35 68 -60 96 -67 76 -160 109 -266 92z m70 -220 l1 -57 88 -8
87 -9 -85 -5 -85 -5 -5 -80 c-4 -71 -6 -76 -12 -40 -4 22 -8 59 -8 83 l0 42
-81 0 c-51 0 -78 4 -74 10 3 6 40 10 81 10 l74 0 1 83 c1 92 16 72 18 -24z"/>
<path d="M9580 1981 l-45 -6 40 -8 c48 -8 138 -7 180 2 25 6 20 8 -34 14 -68
7 -71 7 -141 -2z"/>
<path d="M11325 1941 l-40 -6 49 -8 c58 -8 179 -7 221 2 65 15 -144 25 -230
12z"/>
<path d="M9270 1840 c0 -6 40 -10 101 -10 64 0 98 4 94 10 -3 6 -48 10 -101
10 -56 0 -94 -4 -94 -10z"/>
<path d="M11085 1791 l-80 -6 99 -9 c60 -5 130 -5 180 1 l81 10 -80 2 c-44 1
-89 3 -100 4 -11 2 -56 1 -100 -2z"/>
<path d="M9675 1740 c28 -12 175 -12 175 0 0 6 -39 10 -97 9 -64 0 -91 -3 -78
-9z"/>
<path d="M11560 1700 c-10 -7 16 -10 83 -10 58 0 97 4 97 10 0 13 -160 13
-180 0z"/>
<path d="M11210 1145 l0 -385 350 0 350 0 0 385 0 385 -350 0 -350 0 0 -385z
m650 0 l0 -345 -237 0 c-131 0 -268 3 -305 7 l-68 6 0 332 c0 182 3 335 7 338
3 4 141 7 305 7 l298 0 0 -345z"/>
<path d="M11310 1145 l0 -275 248 2 247 3 0 270 0 270 -247 3 -248 2 0 -275z"/>
<path d="M9340 1125 l0 -385 350 0 350 0 0 385 0 385 -350 0 -350 0 0 -385z
m573 339 l77 -7 0 -339 0 -338 -302 2 -303 3 -3 330 c-1 181 0 336 3 342 3 10
58 13 228 13 123 0 258 -3 300 -6z"/>
<path d="M9440 1125 l0 -275 250 0 250 0 0 275 0 275 -250 0 -250 0 0 -275z"/>
<path d="M11775 631 c-16 -7 -14 -9 14 -14 49 -10 107 -9 96 2 -14 13 -87 21
-110 12z"/>
<path d="M9925 601 c-30 -7 -30 -7 12 -15 51 -9 161 3 142 15 -16 10 -110 10
-154 0z"/>
<path d="M9370 530 c0 -6 50 -10 131 -10 84 0 128 4 124 10 -4 6 -58 10 -131
10 -76 0 -124 -4 -124 -10z"/>
<path d="M11458 513 c-16 -2 -28 -9 -28 -14 0 -10 62 -12 111 -2 28 5 30 7 14
14 -21 8 -52 9 -97 2z"/>
<path d="M9745 410 c-4 -6 24 -10 77 -9 56 0 76 3 63 9 -28 12 -133 12 -140 0z"/>
<path d="M11225 401 c-16 -6 -13 -9 16 -13 43 -7 129 2 129 13 0 11 -117 11
-145 0z"/>
<path d="M1143 2609 c-27 -57 -71 -152 -98 -211 -28 -60 -52 -108 -55 -108 -3
0 -36 67 -75 150 -38 82 -70 148 -72 146 -2 -1 -7 -101 -13 -221 -6 -120 -12
-220 -14 -222 -2 -3 -72 34 -155 81 -83 47 -151 82 -151 79 0 -3 57 -73 126
-155 69 -82 124 -151 122 -154 -3 -2 -64 -7 -137 -10 -73 -4 -127 -10 -119
-14 24 -14 182 -49 298 -67 138 -21 493 -24 640 -5 99 13 202 33 197 38 -2 2
-61 13 -132 24 -72 12 -131 23 -133 24 -1 2 49 34 113 72 l116 69 -131 5 -130
5 81 103 c91 117 94 115 -76 41 -60 -26 -110 -47 -111 -46 -1 1 -10 108 -19
237 -9 129 -18 237 -20 239 -2 2 -26 -43 -52 -100z m-17 -195 c-31 -91 -65
-168 -71 -162 -3 3 4 30 15 62 23 69 72 178 76 173 2 -2 -7 -35 -20 -73z
m-182 -149 c28 -59 40 -95 31 -95 -3 0 -19 28 -34 63 -53 116 -50 144 3 32z
m238 -91 c-10 -48 -10 -48 -11 31 0 44 3 91 7 105 11 40 15 -78 4 -136z m170
29 c-37 -47 -98 -104 -86 -81 15 28 106 129 111 124 3 -3 -8 -22 -25 -43z
m-436 -64 c7 -30 13 -63 13 -74 -1 -33 -26 32 -34 90 -9 63 2 54 21 -16z
m-158 -22 c29 -22 50 -42 48 -44 -6 -7 -87 50 -111 78 -24 28 -8 18 63 -34z
m343 -128 c-8 -20 -10 -13 -10 37 -1 34 2 77 7 95 6 28 7 22 10 -37 1 -38 -2
-81 -7 -95z m301 75 c-32 -22 -153 -76 -159 -71 -5 6 154 87 170 87 6 0 1 -7
-11 -16z m-482 -124 c20 -6 14 -8 -25 -8 -27 0 -61 4 -75 8 -20 6 -14 8 25 8
28 0 61 -4 75 -8z m465 -9 c-29 -12 -182 -25 -172 -15 9 9 89 21 152 22 30 1
35 -1 20 -7z"/>
<path d="M430 1945 c0 -9 114 -62 170 -79 63 -19 230 -46 275 -45 33 1 16 5
-140 35 -76 14 -251 66 -287 85 -10 6 -18 7 -18 4z"/>
<path d="M1395 1850 c-22 -5 -86 -12 -143 -16 -56 -4 -105 -11 -108 -15 -7
-12 99 -11 190 2 82 11 172 38 126 37 -14 0 -43 -4 -65 -8z"/>
<path d="M1486 1794 c-131 -30 -272 -44 -480 -45 -159 -2 -166 -2 -91 -11 190
-22 492 7 645 61 72 25 49 24 -74 -5z"/>
<path d="M1363 1620 c-13 -5 -23 -11 -23 -14 0 -7 40 6 46 15 6 10 6 10 -23
-1z"/>
<path d="M7701 590 c1 -42 1 -43 9 -16 6 17 5 36 0 45 -7 11 -9 3 -9 -29z"/>
</g>
</svg>
